<svg width="205" height="40" viewBox="0 0 205 40" fill="none" xmlns="http://www.w3.org/2000/svg">
<path d="M0.0480975 18.0004C9.09042 19.4898 17.3632 16.7511 25.5397 13.4358C29.099 11.9944 32.8025 11.2256 36.6503 11.4178C37.4198 11.4659 38.2375 11.1776 39.2475 12.4749C35.7364 11.9944 32.7544 12.619 29.8204 13.628C24.7702 15.4058 19.72 17.2316 14.4773 18.5769C9.71569 19.8262 4.95404 20.8352 0 20.8352C0.0480975 19.9223 0.0480975 18.9613 0.0480975 18.0004Z" fill="#212121"/>
<path d="M24.5778 20.643C29.2432 22.2286 33.6201 22.0364 37.9008 22.7091C38.3817 22.8052 38.8627 22.8052 39.2956 22.9012C39.8247 23.0454 40.4018 23.0934 40.4018 23.8622C40.3537 24.679 39.9209 24.9673 39.1994 25.0154C37.2274 25.1595 35.2554 25.1114 33.3315 24.5829C32.1291 24.2466 30.8785 24.0063 29.6761 23.622C24.8183 21.9883 20.249 22.5169 15.7278 24.8712C13.3711 26.1205 10.8219 26.9853 8.32084 27.9943C7.69557 28.2346 6.97411 28.3787 6.25264 28.4748C5.77167 28.5228 5.2426 28.3307 5.09831 27.8502C4.95401 27.2736 5.43499 26.9853 5.86786 26.8412C7.50318 26.2646 9.09039 25.5919 10.7738 25.1114C14.2368 24.1505 17.4113 22.7091 20.3452 20.643C25.0588 17.2796 30.4457 15.5019 35.9288 14.0604C36.7464 13.8202 37.6603 13.8202 38.526 13.7722C39.6804 13.7241 40.3056 14.3487 40.3537 15.4538C40.4018 16.9433 39.2475 16.2226 38.6222 16.2226C35.5921 16.3187 32.7062 17.0394 29.9647 18.4328C28.3775 19.2496 26.6941 19.7781 24.5778 20.643Z" fill="#212121"/>
<path d="M5.43502 33.1835C14.2369 32.2225 22.1248 27.8502 30.7824 26.3607C33.2354 25.9283 35.6402 25.7841 38.0932 26.0724C38.6704 26.1205 39.5361 25.9763 39.488 26.8892C39.4399 27.706 38.6223 27.7541 38.0451 27.8021C36.8427 27.8982 35.6402 28.1385 34.4859 27.9943C30.3014 27.5138 26.3574 28.8592 22.3172 29.4358C21.8363 29.4838 21.2591 29.5799 21.2591 30.1565C21.211 30.685 21.7882 30.8772 22.221 31.1174C24.2411 32.1264 26.3574 32.0784 28.4737 31.646C30.2533 31.2616 31.9367 30.5889 33.7163 30.1084C35.2073 29.676 36.6503 28.9553 38.5261 29.0033C38.2375 30.2045 37.8046 30.9733 36.6022 31.4057C31.0229 33.4237 25.4436 34.9132 19.5276 32.703C17.4113 31.9342 15.295 32.5108 13.2268 33.0393C11.3991 33.5198 9.5714 34.0003 7.7437 34.5288C6.63746 34.721 5.8198 34.6249 5.43502 33.1835Z" fill="#212121"/>
<path d="M38.1894 10.4568C34.9669 10.6971 31.7924 10.8412 28.5699 11.1295C23.0387 11.658 17.6999 13.0034 12.3611 14.4448C9.28284 15.2616 6.1565 15.646 2.98207 15.5499C2.2606 15.5499 1.44295 15.6941 0.384804 14.7811C2.98207 14.589 5.14645 14.5409 7.26274 14.2526C8.56137 14.0604 10.8701 14.1565 10.7739 12.8112C10.6777 11.3697 8.46518 11.7541 7.07035 11.7061C5.38694 11.61 3.70353 11.7061 1.87583 11.7061C2.3087 10.5529 3.27065 10.649 4.04021 10.5529C6.25269 10.3127 8.46518 10.2166 10.6777 10.601C17.0265 11.7541 23.2311 11.2256 29.4838 9.83222C31.7443 9.30369 34.0049 9.0154 36.3136 9.06345C37.2756 8.96736 38.1413 9.06345 38.1894 10.4568Z" fill="#212121"/>
<path d="M36.4578 7.62202C28.5218 8.1986 20.8743 11.5619 12.5534 8.48689C13.0825 8.1025 13.2749 7.91031 13.4191 7.91031C20.0085 8.05445 26.4536 6.90131 32.9948 6.32473C34.1492 6.18059 35.544 5.65206 36.4578 7.62202Z" fill="#212121"/>
<path d="M32.7543 4.01843C23.0867 4.7872 13.6115 5.17158 4.08824 8.05445C5.33878 5.94034 6.54121 4.73915 8.84989 4.6911C15.824 4.595 22.702 3.63405 29.6761 3.05747C30.6861 2.96138 31.9367 2.62504 32.7543 4.01843Z" fill="#212121"/>
<path d="M15.1026 21.3637C10.6295 22.3247 6.78171 24.7751 2.45294 25.9283C0.817627 26.4087 0.721433 25.2075 0.480945 24.1024C0.144263 22.5649 1.10621 22.661 2.11626 22.661C5.00211 22.661 7.74366 21.8442 10.4852 21.2196C11.9762 20.8352 13.5154 20.2106 15.1026 21.3637Z" fill="#212121"/>
<path d="M34.3416 34.2886C31.5038 37.8441 29.3394 38.4207 25.0107 37.1234C22.2691 36.3066 19.7681 34.5288 16.6417 34.721C22.4134 34.0003 28.1851 36.1144 34.3416 34.2886Z" fill="#212121"/>
<path d="M26.7422 25.1114C19.6719 27.8502 12.4573 30.2045 5.00218 31.5018C4.47311 31.5979 3.75164 31.7901 3.60735 31.0694C3.41496 30.1565 4.28072 30.3967 4.71359 30.3006C7.02227 29.7721 9.33095 29.3397 11.6877 28.8592C14.3331 28.3307 16.8822 27.5619 19.2871 26.2646C21.4996 25.0154 24.0488 24.4868 26.7422 25.1114Z" fill="#212121"/>
<path d="M27.127 0.895335C21.3072 1.6641 15.9203 2.43287 10.3409 2.67311C12.7939 0.222665 22.9906 -0.930483 27.127 0.895335Z" fill="#212121"/>
<path d="M7.79176 35.682C14.3811 34.4808 19.7199 37.8441 26.0688 39.1414C24.5778 40.0543 23.5196 40.1985 22.5096 39.766C18.0365 37.9402 13.5635 36.3066 8.60942 36.3546C8.41703 36.3546 8.22464 36.0664 7.79176 35.682Z" fill="#212121"/>
<path d="M30.3014 20.3067C33.3796 19.2496 36.554 18.8172 39.7285 18.8172C40.498 18.8172 40.9309 19.1055 40.8347 19.9223C40.7866 20.5469 40.979 21.3157 40.0171 21.3157C36.7464 21.3157 33.4758 21.2196 30.3014 20.3067Z" fill="#212121"/>
<path d="M24.9145 29.676C27.1751 29.4838 29.4357 29.2916 32.0329 29.0514C30.109 30.7811 27.6561 31.0213 24.9145 29.676Z" fill="#212121"/>
<path d="M16.8341 39.2375C14.5736 39.8621 13.2749 38.9973 11.9763 38.1324C13.5154 37.8922 14.9102 38.3246 16.8341 39.2375Z" fill="#212121"/>
<path d="M2.83775 27.9463C3.41492 27.9463 3.99209 27.9463 3.94399 28.5709C3.8959 29.0994 3.31873 29.1475 2.88585 29.1955C2.45297 29.2436 2.11629 29.0514 2.06819 28.619C1.9239 27.8502 2.59726 28.0904 2.83775 27.9463Z" fill="#212121"/>
<path d="M55.2852 28.9212C54.167 28.9212 53.179 28.7681 52.3212 28.4621C51.4634 28.1408 50.6439 27.6281 49.8627 26.9242C49.541 26.6488 49.3801 26.3351 49.3801 25.9831C49.3801 25.7077 49.4874 25.4629 49.7018 25.2486C49.9163 25.0191 50.169 24.9043 50.4601 24.9043C50.7205 24.9043 50.9426 24.9885 51.1264 25.1568C51.7391 25.723 52.3671 26.1438 53.0105 26.4193C53.6692 26.6794 54.4121 26.8095 55.2393 26.8095C56.2043 26.8095 57.0162 26.5876 57.6748 26.1438C58.3488 25.7001 58.6858 25.1415 58.6858 24.4682C58.6705 23.6725 58.3335 23.0604 57.6748 22.632C57.0315 22.1882 56.0435 21.8209 54.7108 21.5302C53.133 21.2089 51.9153 20.6809 51.0575 19.9464C50.215 19.2119 49.7937 18.1943 49.7937 16.8936C49.7937 15.9908 50.0312 15.2027 50.506 14.5294C50.9809 13.8408 51.6395 13.3129 52.482 12.9457C53.3245 12.5784 54.2742 12.3948 55.3312 12.3948C56.2809 12.3948 57.177 12.5478 58.0195 12.8539C58.862 13.1599 59.5436 13.5654 60.0644 14.0704C60.4168 14.3764 60.5929 14.7054 60.5929 15.0574C60.5929 15.3328 60.4857 15.5776 60.2712 15.7919C60.0721 16.0061 59.827 16.1132 59.536 16.1132C59.3215 16.1132 59.1454 16.052 59.0075 15.9296C58.6092 15.5317 58.0578 15.1951 57.3532 14.9196C56.6485 14.6442 55.9745 14.5065 55.3312 14.5065C54.3049 14.5065 53.4854 14.7207 52.8726 15.1492C52.2752 15.5623 51.9765 16.1132 51.9765 16.8018C51.9765 17.5516 52.2752 18.1255 52.8726 18.5233C53.4854 18.9212 54.3891 19.2578 55.5839 19.5333C56.7787 19.7934 57.7514 20.0994 58.502 20.4514C59.2679 20.8033 59.8576 21.293 60.2712 21.9204C60.6848 22.5478 60.8916 23.3665 60.8916 24.3764C60.8916 25.2639 60.6389 26.052 60.1334 26.7406C59.6432 27.4292 58.9692 27.9648 58.1114 28.3473C57.2536 28.7299 56.3115 28.9212 55.2852 28.9212Z" fill="#212121"/>
<path d="M69.5547 16.4575C70.5963 16.4575 71.5383 16.7253 72.3808 17.2609C73.2233 17.7812 73.882 18.5157 74.3569 19.4644C74.847 20.4131 75.0921 21.4843 75.0921 22.6779C75.0921 23.8714 74.847 24.9426 74.3569 25.8913C73.882 26.8248 73.2233 27.5593 72.3808 28.0948C71.5383 28.6304 70.6116 28.8982 69.6006 28.8982C68.8041 28.8982 68.0612 28.7222 67.3718 28.3703C66.6825 28.0183 66.1234 27.5899 65.6945 27.0849V32.1805C65.6945 32.4866 65.5873 32.7467 65.3728 32.9609C65.1737 33.1752 64.9133 33.2823 64.5916 33.2823C64.2853 33.2823 64.0249 33.1752 63.8104 32.9609C63.6113 32.762 63.5117 32.5019 63.5117 32.1805V17.7429C63.5117 17.4216 63.6113 17.1538 63.8104 16.9395C64.0095 16.7253 64.27 16.6182 64.5916 16.6182C64.9133 16.6182 65.1737 16.7253 65.3728 16.9395C65.5873 17.1538 65.6945 17.4216 65.6945 17.7429V18.4086C66.0621 17.873 66.5983 17.4139 67.3029 17.0314C68.0075 16.6488 68.7581 16.4575 69.5547 16.4575ZM69.3019 26.8783C70.0065 26.8783 70.6422 26.6947 71.209 26.3274C71.7758 25.9602 72.2123 25.4629 72.5187 24.8355C72.8404 24.1928 73.0012 23.4736 73.0012 22.6779C73.0012 21.8822 72.8404 21.1706 72.5187 20.5432C72.2123 19.9005 71.7758 19.3955 71.209 19.0283C70.6422 18.661 70.0065 18.4774 69.3019 18.4774C68.582 18.4774 67.9386 18.661 67.3718 19.0283C66.8051 19.3802 66.3609 19.8776 66.0392 20.5203C65.7328 21.1629 65.5796 21.8822 65.5796 22.6779C65.5796 23.4736 65.7328 24.1928 66.0392 24.8355C66.3609 25.4782 66.8051 25.9831 67.3718 26.3504C67.9386 26.7023 68.582 26.8783 69.3019 26.8783Z" fill="#212121"/>
<path d="M89.0221 22.6779C89.0221 23.8714 88.754 24.9426 88.2179 25.8913C87.6818 26.8401 86.9465 27.5822 86.0121 28.1178C85.093 28.6534 84.0744 28.9212 82.9562 28.9212C81.838 28.9212 80.8117 28.6534 79.8773 28.1178C78.9582 27.5822 78.2306 26.8401 77.6944 25.8913C77.1583 24.9426 76.8903 23.8714 76.8903 22.6779C76.8903 21.4843 77.1583 20.4055 77.6944 19.4415C78.2306 18.4774 78.9582 17.7276 79.8773 17.192C80.8117 16.6565 81.838 16.3887 82.9562 16.3887C84.0744 16.3887 85.093 16.6565 86.0121 17.192C86.9465 17.7276 87.6818 18.4774 88.2179 19.4415C88.754 20.4055 89.0221 21.4843 89.0221 22.6779ZM86.8393 22.6779C86.8393 21.8515 86.6631 21.117 86.3108 20.4743C85.9738 19.8164 85.5066 19.3114 84.9092 18.9594C84.3271 18.5922 83.6761 18.4086 82.9562 18.4086C82.2362 18.4086 81.5776 18.5922 80.9802 18.9594C80.3981 19.3114 79.9309 19.8164 79.5786 20.4743C79.2416 21.117 79.0731 21.8515 79.0731 22.6779C79.0731 23.4889 79.2416 24.2157 79.5786 24.8584C79.9309 25.5011 80.3981 26.0061 80.9802 26.3733C81.5776 26.7253 82.2362 26.9013 82.9562 26.9013C83.6761 26.9013 84.3271 26.7253 84.9092 26.3733C85.5066 26.0061 85.9738 25.5011 86.3108 24.8584C86.6631 24.2157 86.8393 23.4889 86.8393 22.6779Z" fill="#212121"/>
<path d="M94.8225 18.7988V25.6388C94.8225 26.404 95.1672 26.7865 95.8565 26.7865C95.9637 26.7865 96.1093 26.7636 96.2931 26.7176C96.4769 26.6564 96.6224 26.6258 96.7296 26.6258C96.9288 26.6258 97.0973 26.71 97.2351 26.8783C97.373 27.0466 97.4419 27.2609 97.4419 27.521C97.4419 27.8424 97.2581 28.1178 96.8905 28.3473C96.5229 28.5769 96.1093 28.6916 95.6497 28.6916C95.1442 28.6916 94.677 28.6381 94.2481 28.531C93.8345 28.4238 93.4592 28.1561 93.1222 27.7276C92.8006 27.2838 92.6397 26.6182 92.6397 25.7307V18.7988H91.3071C91.016 18.7988 90.7709 18.7069 90.5718 18.5233C90.388 18.3244 90.2961 18.0796 90.2961 17.7888C90.2961 17.4981 90.388 17.2609 90.5718 17.0773C90.7709 16.8936 91.016 16.8018 91.3071 16.8018H92.6397V14.8737C92.6397 14.5677 92.7393 14.3076 92.9384 14.0933C93.1529 13.8791 93.421 13.772 93.7426 13.772C94.049 13.772 94.3017 13.8791 94.5009 14.0933C94.7153 14.3076 94.8225 14.5677 94.8225 14.8737V16.8018H96.7296C97.0207 16.8018 97.2581 16.9013 97.4419 17.1002C97.6411 17.2838 97.7406 17.521 97.7406 17.8118C97.7406 18.1025 97.6411 18.3397 97.4419 18.5233C97.2581 18.7069 97.0207 18.7988 96.7296 18.7988H94.8225Z" fill="#212121"/>
<path d="M103.551 18.7988V25.6388C103.551 26.404 103.896 26.7865 104.585 26.7865C104.692 26.7865 104.838 26.7636 105.022 26.7176C105.205 26.6564 105.351 26.6258 105.458 26.6258C105.657 26.6258 105.826 26.71 105.964 26.8783C106.102 27.0466 106.17 27.2609 106.17 27.521C106.17 27.8424 105.987 28.1178 105.619 28.3473C105.251 28.5769 104.838 28.6916 104.378 28.6916C103.873 28.6916 103.406 28.6381 102.977 28.531C102.563 28.4238 102.188 28.1561 101.851 27.7276C101.529 27.2838 101.368 26.6182 101.368 25.7307V18.7988H100.036C99.7446 18.7988 99.4995 18.7069 99.3004 18.5233C99.1166 18.3244 99.0247 18.0796 99.0247 17.7888C99.0247 17.4981 99.1166 17.2609 99.3004 17.0773C99.4995 16.8936 99.7446 16.8018 100.036 16.8018H101.368V14.8737C101.368 14.5677 101.468 14.3076 101.667 14.0933C101.881 13.8791 102.15 13.772 102.471 13.772C102.778 13.772 103.03 13.8791 103.229 14.0933C103.444 14.3076 103.551 14.5677 103.551 14.8737V16.8018H105.458C105.749 16.8018 105.987 16.9013 106.17 17.1002C106.37 17.2838 106.469 17.521 106.469 17.8118C106.469 18.1025 106.37 18.3397 106.17 18.5233C105.987 18.7069 105.749 18.7988 105.458 18.7988H103.551Z" fill="#212121"/>
<path d="M119.474 22.2188C119.459 22.4942 119.344 22.7314 119.13 22.9304C118.915 23.114 118.662 23.2058 118.371 23.2058H110.283C110.391 24.3229 110.812 25.218 111.547 25.8913C112.298 26.5646 113.209 26.9013 114.281 26.9013C115.017 26.9013 115.614 26.7942 116.074 26.5799C116.533 26.3657 116.939 26.0903 117.291 25.7536C117.521 25.6159 117.743 25.547 117.958 25.547C118.218 25.547 118.433 25.6388 118.601 25.8225C118.785 26.0061 118.877 26.2203 118.877 26.4652C118.877 26.7865 118.724 27.0773 118.417 27.3374C117.973 27.7812 117.383 28.1561 116.648 28.4621C115.913 28.7681 115.162 28.9212 114.396 28.9212C113.156 28.9212 112.06 28.661 111.111 28.1408C110.176 27.6205 109.449 26.8936 108.928 25.9602C108.422 25.0268 108.169 23.9709 108.169 22.7926C108.169 21.5072 108.43 20.3825 108.951 19.4185C109.487 18.4392 110.184 17.6893 111.042 17.1691C111.915 16.6488 112.849 16.3887 113.845 16.3887C114.825 16.3887 115.744 16.6411 116.602 17.1461C117.46 17.6511 118.149 18.3473 118.67 19.2349C119.191 20.1224 119.459 21.117 119.474 22.2188ZM113.845 18.4086C112.987 18.4086 112.244 18.6534 111.616 19.1431C110.988 19.6174 110.574 20.3596 110.375 21.3695H117.154V21.1859C117.077 20.3749 116.709 19.7092 116.051 19.189C115.407 18.6687 114.672 18.4086 113.845 18.4086Z" fill="#212121"/>
<path d="M131.774 11.7062C132.096 11.7062 132.356 11.8133 132.555 12.0275C132.77 12.2265 132.877 12.4866 132.877 12.8079V27.5899C132.877 27.8959 132.77 28.1561 132.555 28.3703C132.356 28.5845 132.096 28.6916 131.774 28.6916C131.452 28.6916 131.192 28.5922 130.993 28.3932C130.794 28.179 130.694 27.9112 130.694 27.5899V26.9472C130.311 27.4981 129.767 27.9648 129.063 28.3473C128.373 28.7299 127.631 28.9212 126.834 28.9212C125.792 28.9212 124.85 28.6534 124.008 28.1178C123.165 27.5822 122.499 26.8401 122.009 25.8913C121.519 24.9273 121.274 23.8485 121.274 22.6549C121.274 21.4613 121.511 20.3902 121.986 19.4415C122.476 18.4774 123.142 17.7276 123.985 17.192C124.827 16.6565 125.754 16.3887 126.765 16.3887C127.577 16.3887 128.327 16.557 129.017 16.8936C129.706 17.2303 130.265 17.6664 130.694 18.202V12.8079C130.694 12.4866 130.794 12.2265 130.993 12.0275C131.192 11.8133 131.452 11.7062 131.774 11.7062ZM127.087 26.9013C127.807 26.9013 128.442 26.7176 128.994 26.3504C129.561 25.9831 129.997 25.4782 130.304 24.8355C130.625 24.1928 130.786 23.4659 130.786 22.6549C130.786 21.8592 130.625 21.14 130.304 20.4973C129.997 19.8393 129.561 19.3267 128.994 18.9594C128.442 18.5922 127.807 18.4086 127.087 18.4086C126.367 18.4086 125.723 18.5922 125.157 18.9594C124.605 19.3267 124.169 19.8393 123.847 20.4973C123.541 21.14 123.387 21.8592 123.387 22.6549C123.387 23.4659 123.541 24.1928 123.847 24.8355C124.169 25.4782 124.605 25.9831 125.157 26.3504C125.723 26.7176 126.367 26.9013 127.087 26.9013Z" fill="#212121"/>
<path d="M153.478 26.6029C153.8 26.6029 154.06 26.7023 154.259 26.9013C154.474 27.0849 154.581 27.3297 154.581 27.6358C154.581 27.9418 154.474 28.1943 154.259 28.3932C154.045 28.5922 153.785 28.6916 153.478 28.6916H143.001C142.679 28.6916 142.403 28.5845 142.173 28.3703C141.959 28.1408 141.852 27.8883 141.852 27.6128C141.852 27.368 141.936 27.1385 142.105 26.9242L151.479 14.7131H143.782C143.46 14.7131 143.192 14.6136 142.978 14.4147C142.779 14.2157 142.679 13.9633 142.679 13.6572C142.679 13.3512 142.779 13.1063 142.978 12.9227C143.192 12.7238 143.46 12.6243 143.782 12.6243H153.616C153.922 12.6243 154.198 12.7314 154.443 12.9457C154.688 13.1446 154.811 13.3971 154.811 13.7031C154.811 13.9174 154.727 14.1469 154.558 14.3917L145.183 26.6029H153.478Z" fill="#212121"/>
<path d="M167.807 22.2188C167.791 22.4942 167.676 22.7314 167.462 22.9304C167.248 23.114 166.995 23.2058 166.704 23.2058H158.616C158.723 24.3229 159.144 25.218 159.88 25.8913C160.63 26.5646 161.542 26.9013 162.614 26.9013C163.349 26.9013 163.947 26.7942 164.406 26.5799C164.866 26.3657 165.272 26.0903 165.624 25.7536C165.854 25.6159 166.076 25.547 166.29 25.547C166.551 25.547 166.765 25.6388 166.934 25.8225C167.117 26.0061 167.209 26.2203 167.209 26.4652C167.209 26.7865 167.056 27.0773 166.75 27.3374C166.305 27.7812 165.716 28.1561 164.98 28.4621C164.245 28.7681 163.495 28.9212 162.729 28.9212C161.488 28.9212 160.393 28.661 159.443 28.1408C158.509 27.6205 157.781 26.8936 157.26 25.9602C156.755 25.0268 156.502 23.9709 156.502 22.7926C156.502 21.5072 156.762 20.3825 157.283 19.4185C157.819 18.4392 158.516 17.6893 159.374 17.1691C160.247 16.6488 161.182 16.3887 162.177 16.3887C163.158 16.3887 164.077 16.6411 164.935 17.1461C165.792 17.6511 166.482 18.3473 167.002 19.2349C167.523 20.1224 167.791 21.117 167.807 22.2188ZM162.177 18.4086C161.319 18.4086 160.577 18.6534 159.949 19.1431C159.32 19.6174 158.907 20.3596 158.708 21.3695H165.486V21.1859C165.409 20.3749 165.042 19.7092 164.383 19.189C163.74 18.6687 163.004 18.4086 162.177 18.4086Z" fill="#212121"/>
<path d="M176.384 16.3887C177.426 16.3887 178.368 16.6565 179.21 17.192C180.053 17.7276 180.712 18.4698 181.186 19.4185C181.677 20.3672 181.922 21.4384 181.922 22.632C181.922 23.8255 181.677 24.9043 181.186 25.8684C180.712 26.8324 180.053 27.5822 179.21 28.1178C178.368 28.6534 177.441 28.9212 176.43 28.9212C175.634 28.9212 174.891 28.7452 174.201 28.3932C173.512 28.0413 172.953 27.6052 172.524 27.0849V27.7505C172.524 28.0566 172.417 28.3167 172.202 28.531C172.003 28.7452 171.743 28.8523 171.421 28.8523C171.115 28.8523 170.854 28.7528 170.64 28.5539C170.441 28.3397 170.341 28.0719 170.341 27.7505V12.8079C170.341 12.4866 170.441 12.2265 170.64 12.0275C170.839 11.8133 171.1 11.7062 171.421 11.7062C171.743 11.7062 172.003 11.8133 172.202 12.0275C172.417 12.2418 172.524 12.5019 172.524 12.8079V18.4086C172.892 17.8577 173.428 17.3833 174.133 16.9854C174.837 16.5876 175.588 16.3887 176.384 16.3887ZM176.132 26.9013C176.836 26.9013 177.472 26.7176 178.039 26.3504C178.605 25.9678 179.042 25.4552 179.348 24.8125C179.67 24.1545 179.831 23.4277 179.831 22.632C179.831 21.8362 179.67 21.117 179.348 20.4743C179.042 19.8317 178.605 19.3267 178.039 18.9594C177.472 18.5922 176.836 18.4086 176.132 18.4086C175.412 18.4086 174.768 18.5922 174.201 18.9594C173.635 19.3267 173.19 19.8317 172.869 20.4743C172.562 21.1017 172.409 21.8209 172.409 22.632C172.409 23.443 172.562 24.1698 172.869 24.8125C173.19 25.4552 173.635 25.9678 174.201 26.3504C174.768 26.7176 175.412 26.9013 176.132 26.9013Z" fill="#212121"/>
<path d="M190.452 16.3887C190.85 16.3887 191.195 16.4958 191.486 16.71C191.777 16.9089 191.923 17.1614 191.923 17.4675C191.923 17.8347 191.823 18.1178 191.624 18.3167C191.44 18.5004 191.21 18.5922 190.935 18.5922C190.797 18.5922 190.59 18.5463 190.314 18.4545C189.993 18.3473 189.74 18.2938 189.556 18.2938C189.081 18.2938 188.614 18.4621 188.154 18.7988C187.71 19.1201 187.343 19.5715 187.052 20.153C186.776 20.7192 186.638 21.3542 186.638 22.0581V27.5899C186.638 27.8959 186.531 28.1561 186.316 28.3703C186.117 28.5845 185.857 28.6916 185.535 28.6916C185.213 28.6916 184.953 28.5922 184.754 28.3932C184.555 28.179 184.455 27.9112 184.455 27.5899V17.7659C184.455 17.4598 184.555 17.1997 184.754 16.9854C184.968 16.7712 185.229 16.6641 185.535 16.6641C185.857 16.6641 186.117 16.7712 186.316 16.9854C186.531 17.1997 186.638 17.4598 186.638 17.7659V18.9365C186.975 18.1867 187.48 17.5822 188.154 17.1232C188.828 16.6488 189.594 16.404 190.452 16.3887Z" fill="#212121"/>
<path d="M203.443 16.5034C203.764 16.5034 204.025 16.6105 204.224 16.8248C204.438 17.0237 204.545 17.2915 204.545 17.6281V27.5899C204.545 27.8959 204.438 28.1561 204.224 28.3703C204.025 28.5845 203.764 28.6916 203.443 28.6916C203.121 28.6916 202.86 28.5922 202.661 28.3932C202.462 28.179 202.363 27.9112 202.363 27.5899V26.9931C201.964 27.5287 201.421 27.9877 200.731 28.3703C200.042 28.7375 199.299 28.9212 198.503 28.9212C197.461 28.9212 196.511 28.6534 195.653 28.1178C194.811 27.5822 194.145 26.8401 193.654 25.8913C193.179 24.9273 192.942 23.8485 192.942 22.6549C192.942 21.4613 193.179 20.3902 193.654 19.4415C194.145 18.4774 194.811 17.7276 195.653 17.192C196.496 16.6565 197.423 16.3887 198.434 16.3887C199.245 16.3887 199.996 16.557 200.685 16.8936C201.39 17.2303 201.949 17.6587 202.363 18.179V17.6281C202.363 17.3068 202.462 17.039 202.661 16.8248C202.86 16.6105 203.121 16.5034 203.443 16.5034ZM198.755 26.9013C199.475 26.9013 200.111 26.7176 200.662 26.3504C201.229 25.9831 201.666 25.4782 201.972 24.8355C202.294 24.1928 202.455 23.4659 202.455 22.6549C202.455 21.8592 202.294 21.14 201.972 20.4973C201.666 19.8546 201.229 19.3496 200.662 18.9824C200.111 18.5998 199.475 18.4086 198.755 18.4086C198.035 18.4086 197.392 18.5922 196.825 18.9594C196.274 19.3267 195.837 19.8317 195.516 20.4743C195.209 21.117 195.056 21.8439 195.056 22.6549C195.056 23.4659 195.209 24.1928 195.516 24.8355C195.837 25.4782 196.274 25.9831 196.825 26.3504C197.392 26.7176 198.035 26.9013 198.755 26.9013Z" fill="#212121"/>
</svg>
